<svg width="29" height="30" viewBox="0 0 29 30" fill="none" xmlns="http://www.w3.org/2000/svg">
<path fill-rule="evenodd" clip-rule="evenodd" d="M4.9617 5.32421C4.59777 7.84065 4.23908 14.6369 9.57963 19.9774C14.9202 25.318 21.7164 24.9593 24.2328 24.5953V19.4461L18.9452 18.5648L18.147 20.1614C17.945 20.5652 17.5323 20.8203 17.0808 20.8203V19.6283C17.0808 20.8203 17.0802 20.8203 17.0796 20.8203L17.0783 20.8203L17.0757 20.8203L17.0697 20.8202L17.055 20.8201C17.044 20.8199 17.0306 20.8196 17.015 20.8191C16.9838 20.8181 16.9434 20.8163 16.8944 20.813C16.7965 20.8065 16.6643 20.7942 16.5025 20.7711C16.1791 20.7249 15.7361 20.6352 15.2138 20.4611C14.1652 20.1116 12.8075 19.4248 11.4699 18.0871C10.1323 16.7495 9.44546 15.3918 9.09592 14.3432C8.92184 13.821 8.83218 13.378 8.78598 13.0546C8.76287 12.8928 8.75057 12.7605 8.74405 12.6626C8.74078 12.6137 8.73896 12.5733 8.73795 12.542C8.73745 12.5264 8.73715 12.5131 8.73697 12.5021L8.7368 12.4874L8.73676 12.4814L8.73675 12.4787L8.73675 12.4774C8.73675 12.4768 8.73675 12.4762 9.92876 12.4762H8.73675C8.73675 12.0777 8.93594 11.7055 9.26755 11.4844L12.0388 9.63692L10.3137 5.32421H4.9617ZM11.2086 13.0557L13.3612 11.6205C14.2993 10.9952 14.671 9.79826 14.2523 8.75152L12.5272 4.43881C12.1652 3.5337 11.2886 2.9402 10.3137 2.9402H4.89942C3.81647 2.9402 2.79709 3.69255 2.61931 4.86755C2.21485 7.54075 1.66432 15.4336 7.89388 21.6632C14.1234 27.8927 22.0163 27.3422 24.6895 26.9377C25.8645 26.7599 26.6168 25.7406 26.6168 24.6576V19.4461C26.6168 18.2807 25.7743 17.2861 24.6248 17.0945L19.3372 16.2132C18.3048 16.0412 17.281 16.5625 16.8129 17.4986L16.3999 18.3247C16.2701 18.2928 16.1252 18.2519 15.9677 18.1994C15.2283 17.953 14.202 17.4478 13.1556 16.4014C12.1093 15.355 11.6041 14.3287 11.3576 13.5893C11.291 13.3895 11.243 13.2099 11.2086 13.0557Z" fill="#999966"/>
</svg>
